<?xml version="1.0" encoding="utf-8"?>
<!-- Generator: Adobe Illustrator 27.5.0, SVG Export Plug-In . SVG Version: 6.00 Build 0)  -->
<svg version="1.1" id="Layer_1" xmlns="http://www.w3.org/2000/svg" xmlns:xlink="http://www.w3.org/1999/xlink" x="0px" y="0px"
	 viewBox="0 0 200 92" style="enable-background:new 0 0 200 92;" xml:space="preserve">
<style type="text/css">
	.st0{enable-background:new    ;}
	.st1{fill:#30261D;}
	.st2{fill:none;stroke:#30261D;stroke-miterlimit:10;}
</style>
<g>
	<g class="st0">
		<path class="st1" d="M12,44.1c0-0.1,0.1-0.2,0.2-0.3c0.1-0.1,0.3-0.2,0.5-0.2c0.2-0.1,0.5-0.1,0.8-0.2c0.3-0.1,0.6-0.1,0.9-0.1
			c0.3,0,0.6-0.1,0.9-0.1c0.3,0,0.5,0,0.8,0c0.3,0,0.4,0,0.5-0.1c0.4,0,1.1-0.1,2-0.3l2.1-0.2c1.7-0.2,3.2-0.3,4.7-0.5
			c3.4-10.7,6.3-18.7,8.7-24c0.8-1.9,1.6-3.1,2.1-3.8c0.5-0.6,1.1-0.8,1.8-0.7c0.5,0.2,1.1,0.9,1.6,2.1c0.2,0.5,0.4,1,0.5,1.6
			c0.5,2,1,4.3,1.3,6.9c0.6,4.3,1,9.9,1.4,16.7c0.9,0,1.8-0.1,2.6-0.1c0.1,0,0.2,0.1,0.2,0.2c0,0.1-0.1,0.2-0.2,0.2
			c-0.8,0-1.7,0-2.6,0.1c0.1,1.9,0.3,7.8,0.5,17.7c0.1,2,0.1,3.2,0.2,3.5c0.1,0.8,0.1,1.4,0.2,1.8c0,0.1,0,0.2,0,0.4
			c0,0.2,0,0.4,0,0.5c0,0.1,0,0.2-0.1,0.4c0,0.2-0.1,0.3-0.2,0.5c-0.1,0.1-0.2,0.2-0.3,0.3c-0.1,0.1-0.2,0.1-0.4,0.1
			c-0.1,0-0.3-0.1-0.4-0.1c-0.1-0.1-0.2-0.1-0.2-0.2c-0.1-0.2-0.2-0.4-0.2-0.5c0-0.2,0-0.4,0-0.7c0-0.3,0-0.5,0-0.5
			c0-0.4,0.1-1,0.2-1.8l0.1-3.5v-6.9c0-3.6-0.1-7.2-0.2-10.7c-6,0.2-11.5,0.6-16.4,1.2c-1.2,3.8-2.3,7.8-3.5,12
			c-1.5,5.6-2.7,10.1-3.4,13.5c0,0.3-0.2,0.3-0.5,0.1c-0.1-0.1-0.2-0.2-0.2-0.4c1.8-7.5,4.2-15.8,7.1-25.1
			c-5.1,0.5-8.6,1.1-10.6,1.6c-1,0.3-1.6,0.4-2,0.4h-0.1C12.2,44.6,12,44.5,12,44.1z M25.8,42c4.6-0.4,10-0.8,16.2-1
			c-0.2-6.5-0.6-12.1-1.2-16.6c-0.3-2.7-0.7-5-1.2-6.8c-0.3-1.4-0.8-2.4-1.3-3c-0.2-0.3-0.4-0.4-0.7-0.5c-0.2-0.1-0.5,0-0.7,0.2
			c-0.2,0.2-0.5,0.4-0.7,0.6c-0.2,0.2-0.4,0.5-0.6,0.9c-0.2,0.4-0.4,0.7-0.5,1c-0.1,0.2-0.3,0.6-0.5,1c-0.2,0.4-0.3,0.6-0.3,0.7
			C32,23.6,29.2,31.5,25.8,42z"/>
		<path class="st1" d="M48.1,52v-0.2l0.1-1c0.1-0.4,0.3-1,0.4-1.8c0.1-0.8,0.2-1.3,0.2-1.4c0.3-1.9,0.5-2.9,0.6-3.2
			c0-0.1,0-0.2,0-0.3c0-0.1,0.1-0.2,0.1-0.3c0-0.3,0.1-0.5,0.3-0.6c0.2-0.1,0.4-0.1,0.6,0.2v0.1c0,0.1,0,0.3-0.1,0.5l-0.2,0.5
			c-0.5,1.2-0.9,2.9-1.2,5.2v0.1c0.7-1.4,1.4-2.7,2.4-3.9c1.2-1.5,2.2-2.4,3.1-2.7c0.2,0,0.4,0,0.5,0c0.1,0,0.2,0.1,0.4,0.2
			s0.3,0.3,0.3,0.4c0.1,0.1,0.1,0.2,0.2,0.4s0.2,0.3,0.2,0.4c0,0.1,0.1,0.2,0.1,0.2c0,0.1,0,0.2-0.1,0.2c-0.1,0.1-0.1,0.1-0.2,0.1
			c0,0-0.1,0-0.1-0.1c-0.1-0.1-0.2-0.2-0.2-0.4c0-0.3-0.1-0.6-0.3-0.9c-0.2-0.3-0.4-0.3-0.7-0.3c-0.2,0.1-0.5,0.2-0.7,0.3
			c-1.5,1.1-2.9,2.7-4,5c-0.6,1.3-0.9,2.2-0.9,2.9V52c-0.2,0.4-0.4,0.5-0.7,0.3C48.1,52.3,48.1,52.1,48.1,52z"/>
		<path class="st1" d="M61.1,36.8c0.5,0,1.7,0,3.3,0c1.7,0,3,0,4.1,0.1c1.1,0.1,2.1,0.2,3.2,0.3c0.1,0,0.1,0,0.2,0s0.1,0,0,0.1
			c0,0.1-0.1,0.2-0.2,0.2c-0.8-0.1-2.6-0.3-5.3-0.4C64,37,62.2,37,61.1,37h-1.3c-1,4.6-1.7,8.7-2.2,12c-0.3,2.7-0.5,4.8-0.4,6.3
			c0,2.4,0.6,3.6,1.8,3.6c0.4,0,0.8-0.1,1.4-0.4c1.2-0.7,2.7-2.3,4.2-4.7c1.1-1.8,2.2-3.6,3.1-5.5c0.1-0.1,0.2-0.1,0.2-0.1
			c0.1,0,0.1,0.1,0.1,0.2c-1.7,3.5-3.3,6.2-5,8.2c-0.8,1-1.6,1.7-2.4,2.2c-0.5,0.3-1.1,0.5-1.6,0.5c-1.5,0-2.3-1.3-2.3-4
			c0-1.8,0.1-3.9,0.4-6.4c0.4-3.4,1.2-7.4,2.2-12.1h-3.6L53,37.1c-0.2,0-0.9,0.1-2,0.3c-0.2,0-0.4,0-0.7-0.2
			c-0.2-0.1-0.2-0.3-0.1-0.5c0-0.1,0.1-0.1,0.3-0.2c0.2,0,0.3,0,0.4,0c0.2,0,0.5,0,1,0.1c0.4,0.1,0.8,0.1,1,0.1l2.7,0.1l3.6,0.1
			c0,0,0.1-0.1,0.1-0.2l0.1-0.1c0.7-3.2,1.4-6.3,2.2-9.3l0.4-1.5c0.1-0.2,0.1-0.5,0.1-0.8c0-0.3,0.1-0.6,0.2-0.8
			c0.1-0.2,0.3-0.3,0.5-0.2c0.2,0.1,0.3,0.2,0.3,0.4c0,0.2,0,0.4-0.1,0.5c-0.1,0.2-0.2,0.3-0.3,0.5c-0.1,0.2-0.2,0.3-0.2,0.4
			l-0.4,1.6c-0.7,2.2-1.4,5.3-2.3,9.3c0,0,0,0.1,0,0.1c0,0,0,0.1,0,0.1H61.1z"/>
	</g>
	<g class="st0">
		<path class="st2" d="M12,44.1c0-0.1,0.1-0.2,0.2-0.3c0.1-0.1,0.3-0.2,0.5-0.2c0.2-0.1,0.5-0.1,0.8-0.2c0.3-0.1,0.6-0.1,0.9-0.1
			c0.3,0,0.6-0.1,0.9-0.1c0.3,0,0.5,0,0.8,0c0.3,0,0.4,0,0.5-0.1c0.4,0,1.1-0.1,2-0.3l2.1-0.2c1.7-0.2,3.2-0.3,4.7-0.5
			c3.4-10.7,6.3-18.7,8.7-24c0.8-1.9,1.6-3.1,2.1-3.8c0.5-0.6,1.1-0.8,1.8-0.7c0.5,0.2,1.1,0.9,1.6,2.1c0.2,0.5,0.4,1,0.5,1.6
			c0.5,2,1,4.3,1.3,6.9c0.6,4.3,1,9.9,1.4,16.7c0.9,0,1.8-0.1,2.6-0.1c0.1,0,0.2,0.1,0.2,0.2c0,0.1-0.1,0.2-0.2,0.2
			c-0.8,0-1.7,0-2.6,0.1c0.1,1.9,0.3,7.8,0.5,17.7c0.1,2,0.1,3.2,0.2,3.5c0.1,0.8,0.1,1.4,0.2,1.8c0,0.1,0,0.2,0,0.4
			c0,0.2,0,0.4,0,0.5c0,0.1,0,0.2-0.1,0.4c0,0.2-0.1,0.3-0.2,0.5c-0.1,0.1-0.2,0.2-0.3,0.3c-0.1,0.1-0.2,0.1-0.4,0.1
			c-0.1,0-0.3-0.1-0.4-0.1c-0.1-0.1-0.2-0.1-0.2-0.2c-0.1-0.2-0.2-0.4-0.2-0.5c0-0.2,0-0.4,0-0.7c0-0.3,0-0.5,0-0.5
			c0-0.4,0.1-1,0.2-1.8l0.1-3.5v-6.9c0-3.6-0.1-7.2-0.2-10.7c-6,0.2-11.5,0.6-16.4,1.2c-1.2,3.8-2.3,7.8-3.5,12
			c-1.5,5.6-2.7,10.1-3.4,13.5c0,0.3-0.2,0.3-0.5,0.1c-0.1-0.1-0.2-0.2-0.2-0.4c1.8-7.5,4.2-15.8,7.1-25.1
			c-5.1,0.5-8.6,1.1-10.6,1.6c-1,0.3-1.6,0.4-2,0.4h-0.1C12.2,44.6,12,44.5,12,44.1z M25.8,42c4.6-0.4,10-0.8,16.2-1
			c-0.2-6.5-0.6-12.1-1.2-16.6c-0.3-2.7-0.7-5-1.2-6.8c-0.3-1.4-0.8-2.4-1.3-3c-0.2-0.3-0.4-0.4-0.7-0.5c-0.2-0.1-0.5,0-0.7,0.2
			c-0.2,0.2-0.5,0.4-0.7,0.6c-0.2,0.2-0.4,0.5-0.6,0.9c-0.2,0.4-0.4,0.7-0.5,1c-0.1,0.2-0.3,0.6-0.5,1c-0.2,0.4-0.3,0.6-0.3,0.7
			C32,23.6,29.2,31.5,25.8,42z"/>
		<path class="st2" d="M48.1,52v-0.2l0.1-1c0.1-0.4,0.3-1,0.4-1.8c0.1-0.8,0.2-1.3,0.2-1.4c0.3-1.9,0.5-2.9,0.6-3.2
			c0-0.1,0-0.2,0-0.3c0-0.1,0.1-0.2,0.1-0.3c0-0.3,0.1-0.5,0.3-0.6c0.2-0.1,0.4-0.1,0.6,0.2v0.1c0,0.1,0,0.3-0.1,0.5l-0.2,0.5
			c-0.5,1.2-0.9,2.9-1.2,5.2v0.1c0.7-1.4,1.4-2.7,2.4-3.9c1.2-1.5,2.2-2.4,3.1-2.7c0.2,0,0.4,0,0.5,0c0.1,0,0.2,0.1,0.4,0.2
			s0.3,0.3,0.3,0.4c0.1,0.1,0.1,0.2,0.2,0.4s0.2,0.3,0.2,0.4c0,0.1,0.1,0.2,0.1,0.2c0,0.1,0,0.2-0.1,0.2c-0.1,0.1-0.1,0.1-0.2,0.1
			c0,0-0.1,0-0.1-0.1c-0.1-0.1-0.2-0.2-0.2-0.4c0-0.3-0.1-0.6-0.3-0.9c-0.2-0.3-0.4-0.3-0.7-0.3c-0.2,0.1-0.5,0.2-0.7,0.3
			c-1.5,1.1-2.9,2.7-4,5c-0.6,1.3-0.9,2.2-0.9,2.9V52c-0.2,0.4-0.4,0.5-0.7,0.3C48.1,52.3,48.1,52.1,48.1,52z"/>
		<path class="st2" d="M61.1,36.8c0.5,0,1.7,0,3.3,0c1.7,0,3,0,4.1,0.1c1.1,0.1,2.1,0.2,3.2,0.3c0.1,0,0.1,0,0.2,0s0.1,0,0,0.1
			c0,0.1-0.1,0.2-0.2,0.2c-0.8-0.1-2.6-0.3-5.3-0.4C64,37,62.2,37,61.1,37h-1.3c-1,4.6-1.7,8.7-2.2,12c-0.3,2.7-0.5,4.8-0.4,6.3
			c0,2.4,0.6,3.6,1.8,3.6c0.4,0,0.8-0.1,1.4-0.4c1.2-0.7,2.7-2.3,4.2-4.7c1.1-1.8,2.2-3.6,3.1-5.5c0.1-0.1,0.2-0.1,0.2-0.1
			c0.1,0,0.1,0.1,0.1,0.2c-1.7,3.5-3.3,6.2-5,8.2c-0.8,1-1.6,1.7-2.4,2.2c-0.5,0.3-1.1,0.5-1.6,0.5c-1.5,0-2.3-1.3-2.3-4
			c0-1.8,0.1-3.9,0.4-6.4c0.4-3.4,1.2-7.4,2.2-12.1h-3.6L53,37.1c-0.2,0-0.9,0.1-2,0.3c-0.2,0-0.4,0-0.7-0.2
			c-0.2-0.1-0.2-0.3-0.1-0.5c0-0.1,0.1-0.1,0.3-0.2c0.2,0,0.3,0,0.4,0c0.2,0,0.5,0,1,0.1c0.4,0.1,0.8,0.1,1,0.1l2.7,0.1l3.6,0.1
			c0,0,0.1-0.1,0.1-0.2l0.1-0.1c0.7-3.2,1.4-6.3,2.2-9.3l0.4-1.5c0.1-0.2,0.1-0.5,0.1-0.8c0-0.3,0.1-0.6,0.2-0.8
			c0.1-0.2,0.3-0.3,0.5-0.2c0.2,0.1,0.3,0.2,0.3,0.4c0,0.2,0,0.4-0.1,0.5c-0.1,0.2-0.2,0.3-0.3,0.5c-0.1,0.2-0.2,0.3-0.2,0.4
			l-0.4,1.6c-0.7,2.2-1.4,5.3-2.3,9.3c0,0,0,0.1,0,0.1c0,0,0,0.1,0,0.1H61.1z"/>
	</g>
	<g class="st0">
		<path class="st1" d="M85.9,58c-3.1,0-4.7-2.2-4.7-4.8V42.1c0-2.6,1.6-4.8,4.7-4.8s4.6,2,4.6,4.6v2.7h-2.2v-2.8
			c0-1.3-0.8-2.3-2.2-2.3c-1.5,0-2.3,1-2.3,2.2v11.8c0,1.3,0.8,2.2,2.3,2.2c1.5,0,2.2-0.9,2.2-2.3v-2.8h2.2v2.8
			C90.5,56,89,58,85.9,58z"/>
		<path class="st1" d="M97.2,58c-3.1,0-4.7-2.1-4.7-4.9V42.2c0-2.8,1.6-4.9,4.7-4.9c3.1,0,4.7,2.1,4.7,4.9v10.9
			C101.9,56,100.2,58,97.2,58z M99.4,42c0-1.3-0.8-2.4-2.2-2.4c-1.5,0-2.2,1-2.2,2.4v11.4c0,1.4,0.7,2.4,2.2,2.4
			c1.5,0,2.2-1,2.2-2.4V42z"/>
		<path class="st1" d="M108.8,58c-3.1,0-4.7-2.2-4.7-4.8V42.1c0-2.6,1.6-4.8,4.7-4.8c3.1,0,4.6,2,4.6,4.6v2.7h-2.2v-2.8
			c0-1.3-0.8-2.3-2.2-2.3c-1.5,0-2.3,1-2.3,2.2v11.8c0,1.3,0.8,2.2,2.3,2.2c1.5,0,2.2-0.9,2.2-2.3v-2.8h2.2v2.8
			C113.4,56,111.9,58,108.8,58z"/>
		<path class="st1" d="M122.4,57.7l-3-8.9l-1.4,3v5.8h-2.5v-20h2.5v10.1l4.4-10.1h2.6l-4,8.6l4.1,11.4H122.4z"/>
		<path class="st1" d="M131.7,40v17.7h-2.5V40h-3.4v-2.3h9.2V40H131.7z"/>
		<path class="st1" d="M142.4,57.7l-0.8-4.6h-3.5l-0.8,4.6h-2.4l3.8-20h2.6l3.7,20H142.4z M139.9,42.3l-1.4,8.5h2.8L139.9,42.3z"/>
		<path class="st1" d="M146.6,57.7v-20h2.5v20H146.6z"/>
		<path class="st1" d="M151.8,57.7v-20h2.5v17.7h5.2v2.3H151.8z"/>
		<path class="st1" d="M165.3,58c-2.8,0-4.7-1.9-4.7-4.5v-1.8h2.5v1.6c0,1.7,0.8,2.6,2.2,2.6c1.5,0,2.2-0.9,2.2-2.3
			c0-1.9-0.8-3.2-2.8-5c-1.8-1.6-3.8-3.9-3.8-6.5c0-2.7,1.6-4.7,4.5-4.7c2.7,0,4.4,1.9,4.4,4.5v1.9h-2.4v-1.6c0-1.5-0.7-2.6-2.1-2.6
			c-1.3,0-2,0.8-2,2c0,2,0.8,3.1,3.1,5.2c2.3,2.1,3.5,4,3.5,6.4C169.9,56.4,167.8,58,165.3,58z"/>
	</g>
</g>
</svg>
