<?xml version="1.0" encoding="utf-8"?>
<!-- Generator: Adobe Illustrator 27.5.0, SVG Export Plug-In . SVG Version: 6.00 Build 0)  -->
<svg version="1.1" id="Layer_1" xmlns="http://www.w3.org/2000/svg" xmlns:xlink="http://www.w3.org/1999/xlink" x="0px" y="0px"
	 viewBox="0 0 200 92" style="enable-background:new 0 0 200 92;" xml:space="preserve">
<style type="text/css">
	.st0{enable-background:new    ;}
	.st1{fill:#30261D;}
	.st2{fill:#96262C;}
</style>
<g>
	<g>
		<g>
			<g>
				<g class="st0">
					<path class="st1" d="M65.6,47H63v8.8h-2.7V34.4h5.2c2.7,0,4.3,1.4,4.3,4.4v3.8C69.9,45.5,68.3,47,65.6,47z M67.2,38.7
						c0-1.2-0.4-1.9-1.6-1.9H63v7.8h2.6c1.1,0,1.6-0.7,1.6-1.9V38.7z"/>
					<path class="st1" d="M72,55.8V34.4h2.7v21.3H72z"/>
					<path class="st1" d="M79.9,53.3h6.2v2.4h-9.4v-1.3l6.6-17.5h-6.2v-2.5h9.4v1.3L79.9,53.3z"/>
					<path class="st1" d="M90.8,53.3h6.2v2.4h-9.4v-1.3l6.6-17.5H88v-2.5h9.4v1.3L90.8,53.3z"/>
					<path class="st1" d="M106.3,55.8l-0.9-4.9h-3.8l-0.9,4.9h-2.5l4-21.3h2.8l4,21.3H106.3z M103.6,39.4l-1.5,9.1h2.9L103.6,39.4z"
						/>
					<path class="st1" d="M114.9,56.1c-3,0-5-2-5-4.8v-2h2.6v1.7c0,1.8,0.8,2.8,2.3,2.8c1.6,0,2.3-1,2.3-2.5c0-2-0.8-3.4-3-5.4
						c-2-1.7-4.1-4.2-4.1-7c0-2.8,1.7-5,4.8-5c2.9,0,4.7,2,4.7,4.8v2h-2.5v-1.7c0-1.6-0.7-2.8-2.3-2.8c-1.4,0-2.1,0.8-2.1,2.2
						c0,2.1,0.8,3.3,3.3,5.6c2.5,2.2,3.7,4.2,3.7,6.8C119.9,54.4,117.6,56.1,114.9,56.1z"/>
				</g>
			</g>
		</g>
		<g>
			<g class="st0">
				<path class="st1" d="M128,49.7c0.4,0,0.8,0,1.3,0c0,0,0,0.1,0,0.1c-0.2,0-0.6,0-0.7,0.1c-0.1,0-0.1,0.1-0.2,0.3
					c-0.7,1.7-1.4,3.4-2.2,5.2c0,0.1-0.1,0.2,0,0.2c0.1,0.1,0.6,0,0.8,0.1c0,0,0,0.1,0,0.1c-0.5,0-1,0-1.7,0c-0.3,0-0.9,0-1.1,0
					c0,0,0-0.1,0-0.1c0.3,0,0.7,0,0.7,0c0,0,0.1-0.1,0.2-0.3c0.8-1.8,1.4-3.3,2.2-5.2c0.1-0.2,0.1-0.3,0-0.3c0-0.1-0.6,0-0.8-0.1
					c0,0,0-0.1,0-0.1C127.2,49.7,127.6,49.7,128,49.7z"/>
				<path class="st1" d="M130.3,50.4c0.1,0,0.6,0,0.6,0.1c0,0,0,0,0,0c0,0.1-0.3,0.9-0.5,1.3c0.4,0,1.2,0,1.3,0c0,0,0,0.1,0,0.1
					c-0.2,0-0.9,0-1.3,0c-0.3,0.7-0.7,1.6-1,2.4c-0.1,0.3-0.2,0.5-0.2,0.8c0,0.2,0.2,0.4,0.4,0.4c0.4,0,0.8-0.3,1.4-1.1
					c0,0,0.1,0,0.1,0.1c-0.7,0.9-1.2,1.3-1.8,1.3c-0.2,0-0.5-0.1-0.6-0.3c-0.2-0.2-0.2-0.3-0.2-0.6c0-0.2,0.1-0.7,0.3-1
					c0.3-0.6,0.6-1.6,0.8-1.9c0,0,0,0,0,0c0,0-0.6,0-0.9,0c0,0,0-0.1,0-0.1c0.2,0,0.9,0,0.9,0c0,0,0,0,0-0.1
					c0.2-0.3,0.4-0.9,0.6-1.4C130.1,50.4,130.2,50.4,130.3,50.4z"/>
				<path class="st1" d="M135,52.2c0.1-0.2,0.2-0.5,0.3-0.5c0,0,0.7,0.1,0.7,0.1c0,0,0,0.2,0,0.2c-0.1,0.3-0.7,1.7-1.1,2.6
					c-0.1,0.2-0.2,0.5-0.2,0.7c0,0.2,0.1,0.3,0.2,0.3c0.2,0,0.5-0.2,1.1-0.9c0,0,0.1,0,0.1,0c-0.5,0.7-0.9,1.1-1.5,1.1
					c-0.4,0-0.8-0.3-0.8-0.7c0-0.2,0-0.3,0.1-0.5c-0.5,0.7-1.2,1.2-1.6,1.2c-0.5,0-1.1-0.5-1.1-1.3c0-0.6,0.2-1.1,0.9-1.8
					c0.6-0.6,1.4-1.1,2-1.1C134.6,51.7,134.9,51.9,135,52.2z M132.5,53.8c-0.3,0.6-0.4,1.1-0.4,1.3c0,0.3,0.2,0.5,0.5,0.5
					c0.4,0,1.2-0.6,1.6-1.5c0.4-0.7,0.7-1.5,0.7-1.7c0-0.2-0.2-0.5-0.5-0.5C133.6,51.9,133,52.8,132.5,53.8z"/>
				<path class="st1" d="M139.7,49.4C139.8,49.4,139.8,49.4,139.7,49.4c-0.4,0.9-1.5,3.7-2.1,5.1c-0.2,0.4-0.2,0.6-0.2,0.8
					c0,0.2,0.1,0.3,0.3,0.3c0.3,0,0.5-0.2,1.1-1c0,0,0.1,0,0.1,0c-0.6,0.8-1,1.1-1.4,1.1c-0.3,0-0.5-0.1-0.7-0.3
					c-0.1-0.1-0.2-0.3-0.2-0.5c0-0.3,0.1-0.5,0.2-0.9c0.7-1.6,1.4-3.2,1.8-4.3c0.1-0.2,0.1-0.3,0.1-0.3c0,0-0.6,0-1,0
					c0,0,0-0.1,0-0.1C138.4,49.4,139.1,49.4,139.7,49.4z"/>
				<path class="st1" d="M141.6,51.9c0.1,0,0,0.1,0,0.3c-0.1,0.2-1.1,2.4-1.2,2.8c-0.1,0.2-0.1,0.2-0.1,0.3c0,0.2,0.1,0.3,0.3,0.3
					c0.3,0,0.6-0.2,1.2-1c0,0,0.1,0,0.1,0c-0.7,0.9-1,1.1-1.5,1.1c-0.3,0-0.5-0.1-0.6-0.3c-0.2-0.1-0.2-0.3-0.2-0.5
					c0-0.2,0.1-0.4,0.2-0.8c0.1-0.3,0.6-1.5,0.9-2.1c0-0.1,0-0.1,0-0.1c0,0-0.5-0.1-1-0.1c0,0,0-0.1,0-0.1
					C140.4,51.9,141.4,51.9,141.6,51.9z M142.4,49.9c0,0.2-0.1,0.3-0.2,0.4c-0.1,0.1-0.3,0.2-0.5,0.2c-0.2,0-0.4-0.1-0.4-0.3
					c0-0.3,0.4-0.7,0.7-0.7C142.3,49.5,142.4,49.8,142.4,49.9z"/>
				<path class="st1" d="M145.7,52.2c0.1-0.2,0.2-0.5,0.3-0.5c0,0,0.7,0.1,0.7,0.1c0,0,0,0.2,0,0.2c-0.1,0.3-0.7,1.7-1.1,2.6
					c-0.1,0.2-0.2,0.5-0.2,0.7c0,0.2,0.1,0.3,0.2,0.3c0.2,0,0.5-0.2,1.1-0.9c0,0,0.1,0,0.1,0c-0.5,0.7-0.9,1.1-1.5,1.1
					c-0.4,0-0.8-0.3-0.8-0.7c0-0.2,0-0.3,0.1-0.5c-0.5,0.7-1.2,1.2-1.6,1.2c-0.5,0-1.1-0.5-1.1-1.3c0-0.6,0.2-1.1,0.9-1.8
					c0.6-0.6,1.4-1.1,2-1.1C145.3,51.7,145.6,51.9,145.7,52.2z M143.3,53.8c-0.3,0.6-0.4,1.1-0.4,1.3c0,0.3,0.2,0.5,0.5,0.5
					c0.4,0,1.2-0.6,1.6-1.5c0.4-0.7,0.7-1.5,0.7-1.7c0-0.2-0.2-0.5-0.5-0.5C144.3,51.9,143.8,52.8,143.3,53.8z"/>
				<path class="st1" d="M149.5,51.9C149.5,51.9,149.5,51.9,149.5,51.9c0,0.3-0.4,1.3-0.5,1.5c0,0,0,0.1,0,0
					c0.8-1.1,1.3-1.7,1.9-1.7c0.3,0,0.5,0.1,0.7,0.3c0.2,0.2,0.2,0.3,0.2,0.6c0,0.3-0.1,0.6-0.5,1.4c-0.4,0.9-0.5,1.1-0.5,1.3
					c0,0.2,0.1,0.3,0.3,0.3c0.3,0,0.7-0.3,1.1-0.9c0,0,0.1,0,0.1,0.1c-0.3,0.5-0.9,1.1-1.5,1.1c-0.2,0-0.4-0.1-0.6-0.2
					c-0.1-0.1-0.2-0.3-0.2-0.5s0.1-0.5,0.5-1.3c0.4-0.9,0.5-1.1,0.5-1.3c0-0.2-0.1-0.4-0.3-0.4c-0.2,0-0.4,0.1-0.8,0.4
					c-0.6,0.6-1.2,1.4-1.3,1.9c-0.2,0.4-0.4,1-0.6,1.4c0,0-0.8,0-0.9,0c0,0,0,0,0,0c0.1-0.3,0.9-2,1-2.3c0.4-0.9,0.5-1.3,0.4-1.4
					c0,0-0.9,0-1,0c0,0,0-0.1,0-0.1C148.2,51.9,149.4,51.9,149.5,51.9z"/>
				<path class="st1" d="M158.5,52.5c0,0.3-0.2,0.5-0.5,0.5c-0.3,0-0.5-0.2-0.5-0.4c0-0.3,0.3-0.5,0.4-0.5c0.1-0.1-0.2-0.3-0.7-0.3
					c-0.5,0-1.1,0.4-1.1,0.8c0,0.3,0.2,0.4,0.8,0.8c0.6,0.3,0.9,0.6,0.9,1.1c0,0.5-0.3,0.9-0.8,1.1c-0.3,0.2-0.7,0.3-1.1,0.3
					c-1,0-1.5-0.4-1.5-0.9c0-0.3,0.2-0.5,0.6-0.5c0.3,0,0.4,0.2,0.4,0.4c0,0.4-0.5,0.5-0.5,0.5c-0.1,0.1,0.2,0.5,1,0.5
					c0.6,0,1-0.4,1-0.8s-0.2-0.6-0.8-0.9c-0.6-0.4-0.9-0.6-0.9-1c0-0.4,0.3-0.8,0.8-1c0.3-0.1,0.7-0.2,1.1-0.2
					C158.1,51.7,158.5,52.1,158.5,52.5z"/>
				<path class="st1" d="M160.7,50.4c0.1,0,0.6,0,0.6,0.1c0,0,0,0,0,0c0,0.1-0.3,0.9-0.5,1.3c0.4,0,1.2,0,1.3,0c0,0,0,0.1,0,0.1
					c-0.2,0-0.9,0-1.3,0c-0.3,0.7-0.7,1.6-1,2.4c-0.1,0.3-0.2,0.5-0.2,0.8c0,0.2,0.2,0.4,0.4,0.4c0.4,0,0.8-0.3,1.4-1.1
					c0,0,0.1,0,0.1,0.1c-0.7,0.9-1.2,1.3-1.8,1.3c-0.2,0-0.5-0.1-0.6-0.3c-0.2-0.2-0.2-0.3-0.2-0.6c0-0.2,0.1-0.7,0.3-1
					c0.3-0.6,0.7-1.6,0.8-1.9c0,0,0,0,0,0c0,0-0.7,0-0.9,0c0,0,0-0.1,0-0.1c0.2,0,0.9,0,0.9,0c0,0,0,0,0-0.1
					c0.2-0.3,0.4-0.9,0.6-1.4C160.6,50.4,160.7,50.4,160.7,50.4z"/>
				<path class="st1" d="M165.4,52.3c0-0.4,0.3-0.6,0.5-0.6c0.2,0,0.4,0.2,0.4,0.5c0,0.2,0,0.3-0.1,0.5c-0.4,0.8-1.7,2.2-3,3.5
					c-0.8,0.8-1.4,1.2-1.9,1.5c-0.4,0.2-0.7,0.3-1.1,0.3c-0.3,0-0.5,0-0.7-0.2c-0.3-0.1-0.5-0.3-0.5-0.6s0.2-0.7,0.6-0.7
					c0.2,0,0.4,0.2,0.4,0.4c0,0.5-0.5,0.5-0.5,0.6c0,0.1,0.3,0.3,0.7,0.3c0.3,0,0.5,0,1-0.3c0.6-0.3,1.2-0.7,1.6-1.2
					c0.1-1,0.3-2.4,0.3-3.3c0-0.6-0.1-1-0.3-1s-0.5,0.2-1,0.6c0,0-0.1,0,0-0.1c0.4-0.5,1-1,1.5-1c0.5,0,0.7,0.4,0.7,1.1
					c0,0.7-0.1,1.9-0.2,2.6c0,0,0,0,0,0c1.4-1.5,1.9-2.3,1.9-2.4C165.8,52.8,165.4,52.7,165.4,52.3z"/>
				<path class="st1" d="M169.7,49.4C169.7,49.4,169.7,49.4,169.7,49.4c-0.4,0.9-1.5,3.7-2.1,5.1c-0.2,0.4-0.2,0.6-0.2,0.8
					c0,0.2,0.1,0.3,0.3,0.3c0.3,0,0.5-0.2,1.1-1c0,0,0.1,0,0.1,0c-0.6,0.8-1,1.1-1.4,1.1c-0.3,0-0.5-0.1-0.7-0.3
					c-0.1-0.1-0.2-0.3-0.2-0.5c0-0.3,0.1-0.5,0.2-0.9c0.7-1.6,1.4-3.2,1.8-4.3c0.1-0.2,0.1-0.3,0.1-0.3c0,0-0.6,0-1,0
					c0,0,0-0.1,0-0.1C168.3,49.4,169.1,49.4,169.7,49.4z"/>
				<path class="st1" d="M170.7,55.9c-0.9,0-1.5-0.7-1.5-1.3c0-0.5,0.3-1.1,0.8-1.6c0.6-0.6,1.7-1.2,2.3-1.2c0.7,0,1.1,0.4,1.1,0.8
					c0,0.2-0.1,0.5-0.3,0.6c-0.5,0.5-1.4,0.7-2.2,0.7c-0.2,0-0.4,0-0.6,0c-0.1,0.3-0.2,0.6-0.2,0.9c0,0.6,0.3,1,0.9,1
					c0.5,0,1.1-0.4,1.7-1.1c0,0,0.1,0,0.1,0C172.2,55.4,171.4,55.9,170.7,55.9z M172,53.5c0.3-0.3,0.5-0.8,0.5-1.2
					c0-0.2-0.1-0.4-0.3-0.4c-0.5,0-1.2,0.7-1.7,1.6c0,0.1-0.1,0.2-0.2,0.3c0.2,0,0.3,0,0.5,0C171.4,53.8,171.8,53.7,172,53.5z"/>
				<path class="st1" d="M173.5,55.4c0-0.3,0.3-0.7,0.7-0.7c0.3,0,0.5,0.2,0.5,0.5c0,0.4-0.3,0.7-0.7,0.7
					C173.8,55.8,173.5,55.7,173.5,55.4z M176.8,50c0,0.1,0,0.3-0.1,0.5c-0.2,0.4-0.8,1.1-1.2,1.9c-0.3,0.6-0.5,0.9-0.8,1.7
					c0,0-0.1,0-0.1,0c0.2-0.6,0.3-0.9,0.6-1.5c0.4-1.1,0.3-2,0.5-2.5c0.2-0.3,0.4-0.4,0.7-0.4C176.7,49.6,176.8,49.8,176.8,50z"/>
			</g>
		</g>
	</g>
	<path class="st2" d="M22.8,38.6c0.4-0.9,0.4-1.4,1.6-1.4c0.9,0,0.9,0.3,1.2,1.1l5.8,13.5c0.2,0.4,0.5,1.1,0.7,1.4
		c0.3,0.5,0.6,0.6,1.2,0.7c0.5,0,1-0.1,1,0.6c0,0.6-0.6,0.6-1,0.6c-1.2,0-2.3-0.1-3.4-0.1c-1.4,0-2.8,0.1-4.1,0.1
		c-0.4,0-0.9-0.1-0.9-0.6c0-0.9,2-0.2,2-1.2c0-0.4-0.2-0.8-0.3-1.1L25.7,50c-0.4-1-0.3-0.9-1.3-0.9h-3.7c-1,0-0.9-0.1-1.2,0.8
		c-0.3,0.8-0.6,1.7-0.6,2.5c0,2,2.8,0.8,2.8,2c0,0.5-0.5,0.6-0.9,0.6c-0.9,0-1.8-0.1-2.6-0.1c-0.9,0-1.8,0.1-2.7,0.1
		c-0.4,0-0.9-0.1-0.9-0.6c0-0.5,0.4-0.5,0.8-0.6c0.8-0.1,1.1-0.2,1.5-0.9c0.4-0.7,0.9-2.1,1.2-2.9l1.5-3.8L22.8,38.6z M20.7,46.7
		c-0.1,0.2-0.3,0.6-0.3,0.8c0,0.4,0.6,0.3,0.8,0.3h2.5c0.2,0,0.9,0.1,0.9-0.2c0-0.1-0.2-0.6-0.3-0.7l-1.9-4.8L20.7,46.7z"/>
	<path class="st2" d="M41.2,44c0.5,0,1.7-2.1,4-2.1c1.2,0,2.4,0.9,2.4,2.1c0,1.3-1.1,2.3-2.3,2.3c-1.8,0-2-1.6-2.8-1.6
		c-1.4,0-1.2,2.9-1.2,3.8l0,2.8c0,0.6-0.1,1.6,0.1,2.2c0.1,0.4,1,0.4,1.5,0.5c0.3,0.1,0.7,0.2,0.7,0.6c0,0.5-0.5,0.5-0.9,0.5
		c-1.2,0-2.4-0.1-3.5-0.1c-1.2,0-2.3,0.1-3.5,0.1c-0.4,0-0.8-0.1-0.8-0.5c0-0.4,0.3-0.5,0.7-0.6c0.4-0.1,1.3-0.1,1.4-0.5
		c0.2-0.6,0.2-1.6,0.2-2.2v-4.1c0-1.2,0.1-1.8-1.2-2c-0.4,0-0.8,0-0.8-0.5c0-0.5,0.9-0.6,1.2-0.7c1.2-0.3,2.8-1,3.6-1.9
		c0.2-0.2,0.4-0.5,1-0.5c0.5,0,0.4,0.7,0.4,1L41.2,44L41.2,44z"/>
	<path class="st2" d="M54.1,49.3c0,1-0.1,3.8,1.4,3.8c0.9,0,1.6-0.8,2-0.8c0.2,0,0.3,0.2,0.3,0.4c0,0.4-0.6,0.9-0.8,1.1
		c-1,0.9-2.4,1.4-3.7,1.4c-0.9,0-2-0.4-2.6-1.2c-0.6-0.9-0.8-2.1-0.8-3.1v-5.8c0-0.2,0-0.9-0.1-1.2c-0.1-0.3-0.4-0.4-0.7-0.4
		c-0.4,0-1.3,0.1-1.3-0.3c0-0.4,0.6-0.6,0.9-0.8c1.5-0.6,2.9-1.6,3.7-3c0.2-0.4,0.5-0.9,1-0.9c0.6,0,0.5,0.6,0.5,1v1.9
		c0,0.8,0.2,0.7,0.9,0.7h1.5c0.6,0,1-0.1,1,0.6c0,0.8-0.2,0.8-1,0.8H55c-0.9,0-0.9,0-0.9,1.1L54.1,49.3L54.1,49.3z"/>
</g>
</svg>
