<?xml version="1.0" encoding="utf-8"?>
<!-- Generator: Adobe Illustrator 27.0.0, SVG Export Plug-In . SVG Version: 6.00 Build 0)  -->
<svg version="1.1" id="Layer_1" xmlns="http://www.w3.org/2000/svg" xmlns:xlink="http://www.w3.org/1999/xlink" x="0px" y="0px"
	 viewBox="0 0 200 92.04" style="enable-background:new 0 0 200 92.04;" xml:space="preserve">
<style type="text/css">
	.st0{fill:#30261D;}
	.st1{font-family:'SurveyorText-Medium';}
	.st2{font-size:8.5px;}
	.st3{fill:#30261D;stroke:#30261D;stroke-width:0.9636;stroke-miterlimit:10;}
</style>
<g>
	<text transform="matrix(1 0 0 1 30.2773 67.8235)"><tspan x="0" y="0" class="st0 st1 st2">Loose leaf teas</tspan><tspan x="0" y="8.5" class="st0 st1 st2">&amp; botanicals</tspan></text>
</g>
<g>
	<g>
		<path class="st3" d="M102.19,23.55c-0.12-0.28-0.07-0.55,0.15-0.82c0.22-0.26,0.57-0.5,1.03-0.73c0.46-0.22,0.84-0.38,1.12-0.48
			c0.28-0.1,0.63-0.21,1.03-0.33c0.36-0.12,0.74-0.26,1.12-0.42c0.38-0.16,0.81-0.33,1.27-0.51c0.46-0.18,0.84-0.33,1.12-0.45
			c5.17-1.9,12.66-3.59,22.47-5.09c0.12-0.81,0.31-1.43,0.58-1.88c0.26-0.44,0.64-0.52,1.12-0.24c0.4,0.28,0.46,0.89,0.18,1.82
			c7.51-1.09,14.13-1.59,19.86-1.51c1.37,0.04,2.35,0.08,2.94,0.12c0.58,0.04,1.36,0.18,2.33,0.42c0.97,0.24,1.67,0.61,2.12,1.09
			c0.16,0.16,0.12,0.32-0.12,0.48c-0.16,0-0.28-0.04-0.36-0.12h-0.12c-0.4-0.48-1.47-0.89-3.21-1.21
			c-2.75-0.44-6.46-0.52-11.14-0.24c-4.12,0.24-8.26,0.65-12.42,1.21c-0.08,0.32-0.31,1.1-0.7,2.33c-0.38,1.23-0.68,2.19-0.88,2.88
			c-0.36,1.45-0.79,3.69-1.27,6.72c-1.74,9.77-2.91,18.86-3.51,27.25c-0.2,2.26-0.32,4.54-0.36,6.84c0,1.49,0.02,2.62,0.06,3.39
			c0,1.33,0.22,2.42,0.67,3.27l0.06,0.06c0.04,0.12,0,0.21-0.12,0.27c-0.12,0.06-0.22,0.03-0.3-0.09c-0.4-1.01-0.61-1.88-0.61-2.6
			c-0.04-0.61-0.06-2.04-0.06-4.3c0.04-4.64,0.61-11.49,1.7-20.53c0.44-3.79,1.05-8.36,1.82-13.69l0.61-3.39
			c0.12-0.77,0.24-1.6,0.36-2.51c0.12-0.91,0.25-1.9,0.39-2.97c0.14-1.07,0.25-1.95,0.33-2.63c-5.09,0.77-10.15,1.78-15.2,3.03
			c-2.91,0.81-5.27,1.55-7.09,2.24c-1.65,0.61-2.77,1.13-3.33,1.57c-0.85,0.57-1.55,1.13-2.12,1.7c-0.12,0.12-0.28,0.24-0.48,0.36
			c-0.2,0.12-0.41,0.17-0.64,0.15C102.36,23.98,102.23,23.83,102.19,23.55"/>
		<path class="st3" d="M150.45,44.93c0.04-0.04,0.11-0.04,0.21,0c0.1,0.04,0.16,0.09,0.18,0.15c0.02,0.06-0.01,0.13-0.09,0.21
			c-2.22,1.49-4.87,2.6-7.93,3.33c-3.63,0.85-6.1,0.71-7.39-0.42c-0.6-0.48-0.79-1.37-0.54-2.66l-0.18-0.06h-0.06
			c-0.28-0.12-0.43-0.31-0.45-0.58c-0.02-0.26,0.08-0.48,0.3-0.67c0.22-0.18,0.45-0.21,0.7-0.09h0.06h0.12
			c0.77-1.53,1.72-2.73,2.85-3.57c1.17-0.89,1.9-0.87,2.18,0.06c0.16,1.01-0.3,2.06-1.39,3.15c-1.37,1.33-2.6,1.94-3.69,1.82
			c-0.16,0.77-0.2,1.25-0.12,1.45c0.16,1.01,1.27,1.55,3.33,1.64c2.42,0.08,5.15-0.5,8.18-1.76
			C148.15,46.36,149.4,45.69,150.45,44.93 M137.74,41.72c-0.69,0.65-1.35,1.51-2,2.6c1.01,0.12,1.89-0.14,2.63-0.79
			c0.75-0.65,1.22-1.41,1.42-2.3c0.16-0.69-0.2-0.77-1.09-0.24L137.74,41.72z"/>
		<path class="st3" d="M150.27,46.44c0,0.2,0.13,0.31,0.39,0.33c0.26,0.02,0.59-0.03,1-0.15c0.4-0.12,0.74-0.23,1-0.33
			c0.26-0.1,0.47-0.19,0.64-0.27c1.53-0.73,2.93-1.59,4.18-2.6c0.6-0.52,1.01-1.05,1.21-1.57c0-0.04,0.02-0.12,0.06-0.24h0.06v-0.12
			c0.08-0.32,0.27-0.53,0.58-0.64c0.3-0.1,0.56-0.06,0.79,0.12c0.22,0.18,0.31,0.43,0.27,0.76c-0.04,0.16-0.18,0.38-0.42,0.67v0.06
			c-0.04,0-0.08,0.02-0.12,0.06c-0.97,0.93-1.45,2.02-1.45,3.27c0.28,2.26,3.9,1.96,10.84-0.91c0.16-0.04,0.3,0.02,0.42,0.18
			c0.04,0.12,0,0.2-0.12,0.24h-0.06c-3.63,1.29-6.28,2.02-7.93,2.18c-2.22,0.28-3.39-0.28-3.51-1.7c-0.12-0.89,0-1.67,0.36-2.36
			c-1.41,1.13-3.05,2.12-4.91,2.97c-1.09,0.44-1.9,0.71-2.42,0.79c-0.85,0-1.27-0.22-1.27-0.67c0-0.4,0.14-0.83,0.42-1.27
			c1.01-1.94,2.82-3.01,5.45-3.21c0.77,0,1.25,0.1,1.45,0.3c0.16,0.24,0.18,0.48,0.06,0.73c-0.12,0.24-0.32,0.36-0.61,0.36h-0.18
			c-0.04,0.04-0.34-0.08-0.91-0.36c-0.89-0.4-1.96-0.16-3.21,0.73c-0.93,0.57-1.57,1.29-1.94,2.18
			C150.31,46.24,150.27,46.4,150.27,46.44"/>
	</g>
	<g>
		<path class="st0" d="M37.38,37.09c0.33-0.77,0.35-1.19,1.3-1.19c0.78,0,0.75,0.28,1.04,0.93l4.86,11.35
			c0.14,0.36,0.38,0.89,0.59,1.19c0.29,0.4,0.5,0.54,0.97,0.56c0.4,0.03,0.85-0.05,0.85,0.49c0,0.47-0.47,0.49-0.8,0.49
			c-0.99,0-1.93-0.09-2.87-0.09c-1.19,0-2.32,0.09-3.45,0.09c-0.33,0-0.75-0.05-0.75-0.49c0-0.8,1.65-0.14,1.65-0.98
			c0-0.31-0.14-0.65-0.24-0.89l-0.76-1.89c-0.3-0.82-0.23-0.77-1.08-0.77h-3.09c-0.83,0-0.76-0.05-1.04,0.7
			c-0.21,0.63-0.52,1.45-0.52,2.13c0,1.65,2.34,0.65,2.34,1.7c0,0.42-0.44,0.49-0.78,0.49c-0.73,0-1.49-0.05-2.22-0.05
			c-0.73,0-1.49,0.05-2.22,0.05c-0.35,0-0.73-0.07-0.73-0.49c0-0.4,0.36-0.44,0.66-0.49c0.69-0.12,0.92-0.16,1.27-0.79
			c0.3-0.57,0.73-1.78,0.99-2.43l1.3-3.22L37.38,37.09z M35.61,43.91c-0.05,0.14-0.21,0.51-0.21,0.68c0,0.32,0.5,0.23,0.71,0.23
			h2.05c0.16,0,0.78,0.09,0.78-0.19c0-0.12-0.19-0.51-0.22-0.58l-1.56-3.99L35.61,43.91z"/>
		<path class="st0" d="M52.44,41.67c0.4,0,1.39-1.77,3.33-1.77c0.99,0,2.01,0.72,2.01,1.77c0,1.05-0.9,1.89-1.96,1.89
			c-1.51,0-1.67-1.36-2.38-1.36c-1.18,0-0.99,2.43-0.99,3.15l0,2.31c0,0.54-0.08,1.38,0.09,1.87c0.12,0.35,0.85,0.33,1.27,0.4
			c0.26,0.05,0.57,0.19,0.57,0.49c0,0.4-0.42,0.45-0.73,0.45c-0.99,0-1.98-0.05-2.97-0.05c-0.99,0-1.94,0.05-2.93,0.05
			c-0.31,0-0.71-0.05-0.71-0.45c0-0.3,0.28-0.44,0.57-0.49c0.33-0.05,1.06-0.07,1.18-0.4c0.17-0.49,0.16-1.33,0.16-1.87v-3.43
			c0-0.98,0.07-1.52-1.04-1.66c-0.33-0.02-0.71,0-0.71-0.4c0-0.42,0.76-0.49,1.01-0.56c1.02-0.26,2.32-0.82,3.04-1.59
			c0.14-0.16,0.36-0.42,0.85-0.42c0.38,0,0.33,0.6,0.33,0.84V41.67z"/>
		<path class="st0" d="M62.88,46.08c0,0.87-0.09,3.15,1.16,3.15c0.78,0,1.3-0.68,1.65-0.68c0.16,0,0.28,0.14,0.28,0.33
			c0,0.31-0.47,0.77-0.66,0.96c-0.8,0.75-1.98,1.19-3.07,1.19c-0.78,0-1.7-0.35-2.17-0.98c-0.54-0.73-0.69-1.73-0.69-2.59v-4.88
			c0-0.19-0.02-0.8-0.07-0.98c-0.05-0.23-0.33-0.3-0.56-0.3c-0.31,0-1.06,0.11-1.06-0.26c0-0.35,0.5-0.53,0.76-0.63
			c1.28-0.51,2.45-1.35,3.13-2.54c0.17-0.3,0.4-0.77,0.8-0.77c0.5,0,0.41,0.54,0.41,0.86v1.61c0,0.65,0.14,0.63,0.76,0.63h1.23
			c0.5,0,0.85-0.11,0.85,0.47c0,0.65-0.17,0.63-0.8,0.63h-1.16c-0.77,0-0.77-0.02-0.77,0.91V46.08z"/>
		<path class="st0" d="M72.77,40.77c-0.71,0-1.47,0.53-1.89,1.02c-0.68,0.77-1.01,1.89-1.01,2.9c0,2.38,1.68,4.76,4.32,4.76
			c1.72,0,2.24-0.86,2.69-0.86c0.17,0,0.28,0.16,0.28,0.28c0,0.54-0.68,0.96-1.06,1.21c-1.09,0.65-2.36,0.96-3.61,0.96
			c-3.47,0-6.3-2.13-6.3-5.61c0-3.57,3.89-5.53,7.17-5.53c0.92,0,2.08,0.19,2.88,0.63c0.49,0.24,0.68,0.47,0.68,0.98
			c0,0.56-0.21,2.13-0.99,2.13c-0.76,0-1.11-0.8-1.42-1.31C74.08,41.63,73.73,40.77,72.77,40.77"/>
		<path class="st0" d="M88.32,47.61c0,0.34-0.11,1.44,0.55,1.44c0.26,0,0.38-0.09,0.59-0.23c0.14-0.07,0.38-0.29,0.57-0.29
			c0.18,0,0.31,0.17,0.31,0.33c0,0.33-0.38,0.7-0.61,0.89c-0.73,0.61-1.61,1.07-2.6,1.07c-0.91,0-1.36-0.33-1.74-1.12
			c-0.05-0.06-0.19-0.54-0.4-0.54c-0.28,0-1.74,1.87-4.08,1.87c-1.4,0-2.46-0.91-2.46-2.29c0-1,0.45-1.68,1.27-2.26
			c0.64-0.46,1.92-1.03,2.72-1.26c0.83-0.23,1.67-0.65,2.24-1.07c0.16-0.14,0.26-0.17,0.26-0.23v-0.77c0-0.8,0.17-2.43-1.06-2.43
			c-0.85,0-1.39,0.76-1.7,1.47c-0.23,0.56-0.37,0.89-1.02,1.15c-0.49,0.26-1.37,0.51-1.93,0.51c-0.35,0-0.74-0.14-0.74-0.54
			c0-0.75,1.04-1.8,1.61-2.17c1.27-0.89,2.88-1.24,4.41-1.24c0.97,0,2.19,0.16,3.02,0.66c0.76,0.47,0.8,1.19,0.8,1.96V47.61z
			 M84.92,46.07c0-0.07,0.05-0.98-0.26-0.98c-0.23,0-1.46,0.77-1.7,0.91c-0.69,0.42-1.25,0.93-1.25,1.77c0,0.72,0.47,1.35,1.27,1.35
			c0.61,0,1.39-0.37,1.7-0.89c0.13-0.26,0.23-0.66,0.23-1.05V46.07z"/>
		<path class="st0" d="M96.07,48.92c0,0.07,0,0.86,1.3,1.03c0.31,0.04,0.75,0.11,0.75,0.54c0,0.35-0.24,0.39-0.54,0.39
			c-1.13,0-2.22-0.04-3.31-0.04c-1.13,0-2.27,0.04-3.39,0.04c-0.33,0-0.57-0.04-0.57-0.4c0-0.42,0.36-0.49,0.64-0.53
			c1.44-0.17,1.44-0.96,1.44-1.03l0-7.28c0-0.21,0.09-0.3-0.8-0.3c-0.31,0-0.92,0.14-0.92-0.32c0-0.59,0.64-0.7,1.09-0.75
			c0.64-0.07,0.64-0.45,0.71-1c0.35-2.83,2.74-4.48,5.52-4.48c0.71,0,2.74,0.21,2.74,1.28c0,0.54-0.71,2.03-1.37,2.03
			c-0.97,0-1.39-2.4-2.19-2.4c-1.14,0-1.09,2.75-1.09,3.43c0,1.05-0.12,1.1,0.73,1.1h1.72c0.49,0,0.43,0.21,0.45,0.65
			c0.02,0.56-0.31,0.47-0.8,0.47h-1.3c-0.82,0-0.8-0.05-0.8,0.16V48.92z"/>
		<path class="st0" d="M104.69,48.92c0,0.07,0,0.86,1.3,1.03c0.31,0.04,0.75,0.11,0.75,0.53c0,0.35-0.23,0.4-0.54,0.4
			c-1.14,0-2.22-0.05-3.31-0.05c-1.14,0-2.27,0.04-3.4,0.04c-0.33,0-0.56-0.04-0.56-0.39c0-0.42,0.36-0.49,0.63-0.54
			c1.45-0.17,1.45-0.96,1.45-1.03v-7.28c0-0.21,0.09-0.31-0.8-0.31c-0.31,0-0.92,0.14-0.92-0.32c-0.01-0.59,0.63-0.7,1.08-0.75
			c0.64-0.07,0.64-0.44,0.71-1c0.35-2.82,2.74-4.48,5.53-4.48c0.7,0,2.73,0.21,2.73,1.29c0,0.53-0.71,2.03-1.37,2.03
			c-0.97,0-1.39-2.4-2.19-2.4c-1.13,0-1.09,2.75-1.09,3.43c0,1.05-0.12,1.1,0.73,1.1h1.73c0.49,0,0.43,0.21,0.45,0.65
			c0.02,0.56-0.31,0.47-0.81,0.47h-1.29c-0.83,0-0.81-0.05-0.81,0.16L104.69,48.92z"/>
		<path class="st0" d="M112.35,44.35c-0.58,0-0.82-0.07-0.82,0.58c0,2.26,1.53,4.5,4.08,4.5c1.79,0,2.55-1.21,3.12-1.21
			c0.19,0,0.35,0.14,0.35,0.35c0,0.47-0.88,1.1-1.23,1.31c-1.16,0.77-2.5,1.16-3.92,1.16c-3.33,0-6.19-2.4-6.19-5.72
			c0-3.34,3.19-5.42,6.42-5.42c1.22,0,2.57,0.35,3.57,1.1c0.8,0.59,1.46,1.45,1.46,2.45c0,0.87-0.52,0.89-1.32,0.89H112.35z
			 M115.03,43.34c0.63-0.14,0.87-0.58,0.87-1.17c0-0.86-0.64-1.47-1.53-1.47c-0.71,0-1.47,0.33-1.94,0.84
			c-0.31,0.37-0.65,1.07-0.65,1.56c0,0.42,0.41,0.37,0.77,0.37C113.18,43.48,114.43,43.48,115.03,43.34"/>
		<path class="st0" d="M112.16,36.58l4.11,1.19c0.43,0.14,0.91,0.09,1.31-0.16c0.37-0.24,0.6-0.73,0.26-1.26
			c-0.22-0.34-0.55-0.47-1.16-0.46l-3.57,0.09L112.16,36.58z"/>
	</g>
</g>
</svg>
