<?xml version="1.0" encoding="utf-8"?>
<!-- Generator: Adobe Illustrator 27.6.1, SVG Export Plug-In . SVG Version: 6.00 Build 0)  -->
<svg version="1.1" id="Layer_1" xmlns="http://www.w3.org/2000/svg" xmlns:xlink="http://www.w3.org/1999/xlink" x="0px" y="0px"
	 viewBox="0 0 204.2 110.4" style="enable-background:new 0 0 204.2 110.4;" xml:space="preserve">
<style type="text/css">
	.st0{fill:#8DC63F;}
</style>
<g>
	<path d="M22.1,42.8h-3.5c-0.8,0-1.4,0.6-1.4,1.4v20.9c0,0.8-0.6,1.4-1.4,1.4h-3.2c-0.8,0-1.4-0.6-1.4-1.4V12c0-0.8,0.6-1.4,1.4-1.4
		h9.6c5.2,0,9.4,2.8,9.4,10.2v11.9C31.5,40,27.3,42.8,22.1,42.8z M25.3,20.3c0-2.7-1-4-3.2-4h-3.6c-0.8,0-1.4,0.6-1.4,1.4v18.2
		c0,0.8,0.6,1.4,1.4,1.4h3.6c2.2,0,3.2-1.4,3.2-4.1V20.3z"/>
	<path d="M58.8,67c-4,0-5.6-1.3-5.6-6V46.5c0-2.9-1.3-4.6-3.9-4.6h-3.2c-0.8,0-1.4,0.6-1.4,1.4v21.8c0,0.8-0.6,1.4-1.4,1.4H40
		c-0.8,0-1.4-0.6-1.4-1.4V12c0-0.8,0.6-1.4,1.4-1.4h9.7c5.2,0,9.3,2.6,9.3,10.1v10.7c0,3.1-0.7,5.4-2.5,6.9c-0.8,0.6-0.8,1.7,0,2.3
		c1.9,1.5,2.7,4,2.7,6.7v13.5c0,1.1,0.2,1.7,0.7,2c0.5,0.3,0.8,0.7,0.8,1.3v1.6c0,0.8-0.6,1.4-1.4,1.4H58.8z M52.9,20.2
		c0-2.6-1.1-3.9-3.4-3.9h-3.5c-0.8,0-1.4,0.6-1.4,1.4v17.5c0,0.8,0.6,1.4,1.4,1.4h3c2.4,0,3.9-1.7,3.9-4.6V20.2z"/>
	<path d="M67.4,65.1V12c0-0.8,0.6-1.4,1.4-1.4h15c0.8,0,1.4,0.6,1.4,1.4v2.8c0,0.8-0.6,1.4-1.4,1.4h-8.9c-0.8,0-1.4,0.6-1.4,1.4
		v15.8c0,0.8,0.6,1.4,1.4,1.4h5.6c0.8,0,1.4,0.6,1.4,1.4v2.6c0,0.8-0.6,1.4-1.4,1.4h-5.6c-0.8,0-1.4,0.6-1.4,1.4v17.7
		c0,0.8,0.6,1.4,1.4,1.4h8.9c0.8,0,1.4,0.6,1.4,1.4v2.8c0,0.8-0.6,1.4-1.4,1.4h-15C68.1,66.5,67.4,65.8,67.4,65.1z"/>
	<path d="M101.7,67.3c-6.6,0-10.7-4.5-10.7-11v-5c0-0.8,0.6-1.4,1.4-1.4h3c0.8,0,1.4,0.6,1.4,1.4v4.7c0,3.7,1.8,6.1,4.7,6.1
		c3.4,0,4.9-2.2,4.9-5.7c0-5.4-2-9.9-6.4-15.5c-3.9-5-8.6-12.5-8.6-19.1c0-7,3.4-12.2,10.6-12.2c6,0,10,4.5,10,11.1V26
		c0,0.8-0.6,1.4-1.4,1.4h-2.9c-0.8,0-1.4-0.6-1.4-1.4v-4.7c0-3.9-1.4-6.1-4.5-6.1c-2.9,0-4.5,1.8-4.5,5.1c0,6,2.1,9.7,7.1,16.3
		c4.9,6.3,7.9,12.2,7.9,18.6C112.4,64,106.8,67.3,101.7,67.3z"/>
	<path d="M128.9,67.3c-6.6,0-10.7-4.5-10.7-11v-5c0-0.8,0.6-1.4,1.4-1.4h3c0.8,0,1.4,0.6,1.4,1.4v4.7c0,3.7,1.8,6.1,4.7,6.1
		c3.4,0,4.9-2.2,4.9-5.7c0-5.4-2-9.9-6.4-15.5c-3.9-5-8.6-12.5-8.6-19.1c0-7,3.4-12.2,10.6-12.2c6,0,10,4.5,10,11.1V26
		c0,0.8-0.6,1.4-1.4,1.4H135c-0.8,0-1.4-0.6-1.4-1.4v-4.7c0-3.9-1.4-6.1-4.5-6.1c-2.9,0-4.5,1.8-4.5,5.1c0,6,2.1,9.7,7.1,16.3
		c4.9,6.3,7.9,12.2,7.9,18.6C139.6,64,134,67.3,128.9,67.3z"/>
	<path d="M147,65.1V12c0-0.8,0.6-1.4,1.4-1.4h15c0.8,0,1.4,0.6,1.4,1.4v2.8c0,0.8-0.6,1.4-1.4,1.4h-8.9c-0.8,0-1.4,0.6-1.4,1.4v15.8
		c0,0.8,0.6,1.4,1.4,1.4h5.6c0.8,0,1.4,0.6,1.4,1.4v2.6c0,0.8-0.6,1.4-1.4,1.4h-5.6c-0.8,0-1.4,0.6-1.4,1.4v17.7
		c0,0.8,0.6,1.4,1.4,1.4h8.9c0.8,0,1.4,0.6,1.4,1.4v2.8c0,0.8-0.6,1.4-1.4,1.4h-15C147.6,66.5,147,65.8,147,65.1z"/>
	<path d="M183.1,66.5h-9.5c-0.8,0-1.4-0.6-1.4-1.4V12c0-0.8,0.6-1.4,1.4-1.4h9.5c7.2,0,10.2,4.5,10.2,12.3v31.2
		C193.3,61.9,190.3,66.5,183.1,66.5z M187.3,22.5c0-4.2-1.3-6-4.4-6h-3.2c-0.8,0-1.4,0.6-1.4,1.4v41.3c0,0.8,0.6,1.4,1.4,1.4h3.2
		c3.1,0,4.4-1.8,4.4-6V22.5z"/>
</g>
<g>
	<path class="st0" d="M15.9,96.8c-2.5,0-4.1-1.9-4.1-4.4V79.2c0-2.5,1.6-4.4,4.1-4.4c2.5,0,3.9,1.8,3.9,4.3v3.5h-2v-3.7
		c0-1.1-0.6-1.9-1.8-1.9c-1.2,0-1.9,0.8-1.9,1.8v13.9c0,1.1,0.6,1.8,1.9,1.8c1.2,0,1.8-0.8,1.8-1.9V89h2v3.5
		C19.8,95,18.4,96.8,15.9,96.8z"/>
	<path class="st0" d="M24.6,96.8c-1.9,0-3.2-1.5-3.2-3.9v-7.6c0-2.3,1.3-3.9,3.2-3.9c1.9,0,3.2,1.6,3.2,3.9v7.6
		C27.8,95.2,26.5,96.8,24.6,96.8z M25.9,84.9c0-0.9-0.4-1.6-1.3-1.6s-1.3,0.7-1.3,1.6v8.3c0,0.9,0.4,1.5,1.3,1.5s1.3-0.6,1.3-1.5
		V84.9z"/>
	<path class="st0" d="M29.8,96.5V75.2h2v21.3H29.8z"/>
	<path class="st0" d="M38.6,96.5L38.4,95c-0.4,1.3-1.3,1.8-2.2,1.8c-1.5,0-2.4-1.2-2.4-3.2v-9c0-2,0.9-3.3,2.4-3.3
		c1,0,1.7,0.5,2.1,1.5v-7.6h2v21.3H38.6z M38.3,84.9c0-1-0.5-1.6-1.3-1.6c-0.8,0-1.3,0.6-1.3,1.7v8.3c0,1.1,0.5,1.7,1.3,1.7
		c0.7,0,1.3-0.6,1.3-1.6V84.9z"/>
	<path class="st0" d="M41.7,87.4v-1.9h4.7v1.9H41.7z"/>
	<path class="st0" d="M52.1,96.7c-1,0-1.8-0.5-2.2-1.5v6.7h-2V81.5h1.6l0.2,1.6c0.4-1.3,1.3-1.9,2.3-1.9c1.5,0,2.4,1.2,2.4,3.2v9.1
		C54.4,95.4,53.5,96.7,52.1,96.7z M52.5,84.8c0-1.1-0.4-1.7-1.3-1.7c-0.7,0-1.3,0.6-1.3,1.6v8.4c0,1,0.5,1.6,1.3,1.6
		c0.8,0,1.3-0.6,1.3-1.7V84.8z"/>
	<path class="st0" d="M58.3,85.4v11.1h-2v-15h1.8l0.1,1.9c0.5-1.5,1.5-2.1,2.8-2v2.2C59,83.6,58.3,84.2,58.3,85.4z"/>
	<path class="st0" d="M65.3,96.8c-1.9,0-3.2-1.5-3.2-3.9v-7.6c0-2.3,1.3-3.9,3.2-3.9c1.9,0,3,1.6,3,3.9v4H64v3.8
		c0,1,0.4,1.7,1.3,1.7c0.9,0,1.2-0.6,1.2-1.7v-1.9h1.7v1.6C68.3,95.2,67.1,96.8,65.3,96.8z M66.5,85c0-1-0.4-1.7-1.2-1.7
		C64.4,83.3,64,84,64,85v2.8h2.5V85z"/>
	<path class="st0" d="M72.9,96.8c-2.1,0-3.1-1.4-3.1-3.8v-1h1.7v1.3c0,1.1,0.5,1.7,1.3,1.7c1,0,1.4-0.5,1.4-1.5c0-1.4-0.2-2-1.7-3.6
		C71,88.6,69.8,87,69.8,85c0-2.3,1.3-3.7,3.1-3.7c2.1,0,3,1.4,3,3.7v1.1h-1.6v-1.5c0-0.8-0.4-1.4-1.3-1.4c-0.8,0-1.3,0.6-1.3,1.4
		c0,1.2,0.5,2.1,2,3.5c1.5,1.3,2.3,2.8,2.3,4.8C76,95.2,74.8,96.8,72.9,96.8z"/>
	<path class="st0" d="M80.4,96.8c-2.1,0-3.1-1.4-3.1-3.8v-1h1.7v1.3c0,1.1,0.5,1.7,1.3,1.7c1,0,1.4-0.5,1.4-1.5c0-1.4-0.2-2-1.7-3.6
		c-1.4-1.2-2.6-2.8-2.6-4.7c0-2.3,1.3-3.7,3.1-3.7c2.1,0,3,1.4,3,3.7v1.1h-1.6v-1.5c0-0.8-0.4-1.4-1.3-1.4c-0.8,0-1.3,0.6-1.3,1.4
		c0,1.2,0.5,2.1,2,3.5c1.5,1.3,2.3,2.8,2.3,4.8C83.5,95.2,82.2,96.8,80.4,96.8z"/>
	<path class="st0" d="M88.2,96.8c-1.9,0-3.2-1.5-3.2-3.9v-7.6c0-2.3,1.3-3.9,3.2-3.9c1.9,0,3,1.6,3,3.9v4H87v3.8
		c0,1,0.4,1.7,1.3,1.7c0.9,0,1.2-0.6,1.2-1.7v-1.9h1.7v1.6C91.2,95.2,90.1,96.8,88.2,96.8z M89.5,85c0-1-0.4-1.7-1.2-1.7
		C87.3,83.3,87,84,87,85v2.8h2.5V85z"/>
	<path class="st0" d="M97.8,96.5L97.6,95c-0.4,1.3-1.3,1.8-2.2,1.8c-1.5,0-2.4-1.2-2.4-3.2v-9c0-2,0.9-3.3,2.4-3.3
		c1,0,1.7,0.5,2.1,1.5v-7.6h2v21.3H97.8z M97.5,84.9c0-1-0.5-1.6-1.3-1.6c-0.8,0-1.3,0.6-1.3,1.7v8.3c0,1.1,0.5,1.7,1.3,1.7
		c0.7,0,1.3-0.6,1.3-1.6V84.9z"/>
	<path class="st0" d="M104.3,102h-0.5v-1.8h0.3c0.8,0,1.2-0.5,1.2-1.3V81.5h2V98C107.2,100.7,106.4,102,104.3,102z M105.3,79.5v-2.4
		h1.8v2.4H105.3z"/>
	<path class="st0" d="M114,96.5l-0.1-1.7c-0.4,1.4-1.3,2-2.3,2c-1.5,0-2.4-1.2-2.4-3.1V81.5h2v11.9c0,0.9,0.5,1.5,1.2,1.5
		c0.9,0,1.4-1.1,1.4-1.9V81.5h2v15H114z"/>
	<path class="st0" d="M117.9,96.5v-15h2v15H117.9z M118,79.5v-2.4h1.8v2.4H118z"/>
	<path class="st0" d="M125,96.8c-1.9,0-3.1-1.5-3.1-3.9v-7.6c0-2.3,1.3-3.9,3.1-3.9c2,0,3,1.6,3,3.9v1.6h-1.7v-2
		c0-0.9-0.4-1.6-1.3-1.6s-1.3,0.6-1.3,1.6v8.3c0,1,0.5,1.5,1.3,1.5s1.3-0.6,1.3-1.5v-1.9h1.7v1.6C128,95.2,127,96.8,125,96.8z"/>
	<path class="st0" d="M132.8,96.8c-1.9,0-3.2-1.5-3.2-3.9v-7.6c0-2.3,1.3-3.9,3.2-3.9c1.9,0,3,1.6,3,3.9v4h-4.3v3.8
		c0,1,0.4,1.7,1.3,1.7c0.9,0,1.2-0.6,1.2-1.7v-1.9h1.7v1.6C135.8,95.2,134.7,96.8,132.8,96.8z M134.1,85c0-1-0.4-1.7-1.2-1.7
		c-0.9,0-1.3,0.7-1.3,1.7v2.8h2.5V85z"/>
	<path class="st0" d="M140.4,96.8c-2.1,0-3.1-1.4-3.1-3.8v-1h1.7v1.3c0,1.1,0.5,1.7,1.3,1.7c1,0,1.4-0.5,1.4-1.5
		c0-1.4-0.2-2-1.7-3.6c-1.4-1.2-2.6-2.8-2.6-4.7c0-2.3,1.3-3.7,3.1-3.7c2.1,0,3,1.4,3,3.7v1.1h-1.6v-1.5c0-0.8-0.4-1.4-1.3-1.4
		c-0.8,0-1.3,0.6-1.3,1.4c0,1.2,0.5,2.1,2,3.5c1.5,1.3,2.3,2.8,2.3,4.8C143.6,95.2,142.3,96.8,140.4,96.8z"/>
</g>
</svg>
