<?xml version="1.0" encoding="utf-8"?>
<!-- Generator: Adobe Illustrator 27.5.0, SVG Export Plug-In . SVG Version: 6.00 Build 0)  -->
<svg version="1.1" id="Layer_1" xmlns="http://www.w3.org/2000/svg" xmlns:xlink="http://www.w3.org/1999/xlink" x="0px" y="0px"
	 viewBox="0 0 390.4 105.1" style="enable-background:new 0 0 390.4 105.1;" xml:space="preserve">
<style type="text/css">
	.st0{fill:#30261D;}
</style>
<g>
	<path class="st0" d="M32.9,75.7c-5.4,0-8.2-3.2-8.2-9.7c0.6-13.9,5.5-26.2,14.5-36.8c1.3-1.5,2.9-2.2,4.6-2.2c0.1,0,0.6,0,1.5,0.1
		c0.9,0,1.9,0.9,2.8,2.5c0.5,0.8,0.7,1.8,0.7,3c0,0.6-0.1,1.1-0.2,1.8c-0.6,2.3-1.4,3.4-2.7,3.4c-0.6,0-0.9-0.3-1.1-0.8
		c-0.1-0.5-0.2-1.1-0.2-1.7c0-0.4,0-0.9-0.1-1.6c0-0.7-0.3-1-0.7-1c-0.9,0-2,0.9-3.3,2.8c-4.5,6.4-7.4,13.3-8.8,20.8
		c-0.7,3.8-1.1,7-1.1,9.4c0,2.3,0.3,3.9,1,5c0.3,0.6,1.1,0.9,2.2,0.9c2.6,0,7.2-2.5,13.8-7.4l0.8-0.7c0.7-0.8,1.3-1.2,1.9-1.2
		c0.2,0,0.6,0.1,1.1,0.4c0.5,0.3,0.7,0.6,0.8,0.9c0,1.1-0.7,2.4-2,3.9c-1.3,1.5-3.5,3.1-6.4,4.8c-3,1.7-6,2.8-9.1,3.3
		C34.3,75.6,33.5,75.7,32.9,75.7z"/>
	<path class="st0" d="M59.9,67.2c-0.9,0-1.9-0.3-3.1-0.9c-1.2-0.6-2.2-1.8-2.9-3.6c-0.4-1-0.6-2.1-0.6-3.3c0-1.9,0.5-4.4,1.5-7.6
		c1-3.2,2.1-5.9,3.4-8.2c0.8-1.4,1.9-2.1,3.2-2.1c2.2,0,3.5,1,3.8,3c0,0.3,0.3,0.7,0.8,1.2c1.7,1.6,2.5,3.9,2.5,7c0,0.2,0,1-0.1,2.5
		s-0.7,3.6-1.9,6.2c-1.2,2.6-2.7,4.4-4.7,5.4C61.2,67.1,60.6,67.2,59.9,67.2z M58.9,62.2c1.2-0.7,2.3-1.9,3.2-3.8
		c1.1-2.4,1.7-4.8,1.7-7.3c0-1.5-0.3-2.7-0.8-3.8c-0.8,0.7-1.6,2-2.4,4c-1.3,3.4-2,6.4-2,9C58.7,61.1,58.8,61.7,58.9,62.2z"/>
	<path class="st0" d="M76,70.8c-3,0-4.9-1.4-5.8-4.3c-0.6-1.7-0.8-3.8-0.8-6.3c0-4.2,0.8-9.5,2.5-15.8c1.7-6.4,3.3-12.7,5-19.1
		c0.4-1.5,1.2-2.2,2.4-2.2c0.4,0,0.7,0.1,1.2,0.2c0.9,0.4,1.4,1,1.4,2c0,0.4-0.1,0.9-0.2,1.5c-4.6,17.7-6.9,29.6-6.9,36
		c0,3,0.5,4.4,1.6,4.4c1.4,0,4.3-2.1,8.7-6.2c0,0,0.1,0,0.1-0.1c0.4-0.4,0.9-0.6,1.4-0.7c0.3,0,0.6,0.1,0.8,0.4
		c0.3,0.2,0.4,0.5,0.4,0.9c0,0.4-0.1,0.8-0.4,1.3C84.2,68.1,80.4,70.8,76,70.8z"/>
	<path class="st0" d="M107.3,82.3h-0.1c-1.5,0-2.9-1.8-4.2-5.4c-1.3-3.4-1.9-8-1.9-13.8c0-6.9,0.1-11.1,0.3-12.6
		c0-0.2,0-0.4-0.1-0.4c-0.1,0-0.4,0.6-0.8,1.9c-2.4,7.5-3.9,12.1-4.6,13.8c-1.2,3.5-2.8,5.2-4.6,5.2c-2.6,0-4.3-1.4-5-4.3
		c-0.4-1.6-0.6-3.4-0.6-5.3c0-7.5,2.3-14.7,6.9-21.6c1.3-2,3.1-3,5.4-3c2.3,0,3.7-0.8,4.4-2.2c0.7-1.5,1.4-3.5,2.2-6.1l2.7-8.9
		c0.5-1.7,1.2-2.6,2.1-2.7c0.5,0,0.9,0,1.3,0.1c1.6,0.4,2.4,1.2,2.5,2.3c0,0.8-0.3,2.4-1,4.7c-1.6,5.4-2.9,9.9-3.8,13.6
		c-1.6,6.4-2.4,14-2.4,22.8c0,0.4,0,3.1,0,7.9c0,4.8,1,8.7,3,11.7c0.5,0.3,0.7,0.7,0.7,1.2C109.5,82,108.8,82.3,107.3,82.3z
		 M91.2,65.2c0.4,0,1-1.3,1.8-4c0.9-2.7,2.2-6.4,4-11.1c1.8-4.8,2.7-7.7,2.7-8.7c0-0.5-0.1-0.7-0.4-0.7c-0.3,0-0.7,0.3-1.4,1
		c-4.9,5.4-7.3,12.6-7.3,21.5v1.4C90.6,65,90.8,65.2,91.2,65.2z"/>
	<path class="st0" d="M114.6,56.2c-1.1,0-2.1-0.6-2.8-1.7c-0.5-0.6-0.7-1.2-0.7-1.7c0-0.6,0.2-1,0.7-1.2c0.3-0.1,0.8-0.1,1.5-0.1
		c5.2-1,9.2-1.5,12.1-1.5c2.5,0,5.3,0.5,8.4,1.4c1.4,0.4,2.1,1.3,2.1,2.7c0,1-0.4,1.5-1.1,1.5c-0.2,0-0.4,0-0.6-0.1
		c-0.2,0-0.3-0.1-0.4-0.1c-3.4-0.7-6.2-1.1-8.5-1.1c-2.5,0-5.7,0.5-9.5,1.5C115.4,56.2,115,56.2,114.6,56.2z"/>
	<path class="st0" d="M139.8,75.2h-0.5c-1.9,0-2.8-1-2.8-3c1-11.9,2.6-23.8,4.7-35.5c0.2-1,0.2-1.7,0.2-2.2c0-0.4-0.2-0.7-0.5-0.7
		c-0.1,0-0.2,0-0.4,0.1c-0.2,0-0.4,0.9-0.8,2.5c-0.2,1.7-0.9,2.5-2,2.5c-1.3,0-2-1-2-3.1c0-1.1,0.3-2.2,0.9-3.2
		c0.6-1,1.8-2.5,3.4-4.2c1.3-1.1,2.1-2.3,2.4-3.7c0.2-0.7,0.8-1,2.1-1c2.5,0,4.6-0.3,6.4-0.8c1.9-0.6,3.8-0.9,5.6-0.9
		c3.1,0,5.7,0.8,7.9,2.5c2.4,1.8,3.7,4.3,3.7,7.5c0,1.1-0.2,2.1-0.6,3.2c-0.9,2.3-1.6,3.8-2.1,4.4c-3.7,6.9-8.2,13.2-13.5,18.9
		c-1.8,2.1-3.8,3.3-6,3.5c-0.6,0-1.4,0-2.2-0.1c-1.2,0-1.9,3.6-2.2,10.7C141.3,74.2,140.8,75.1,139.8,75.2z M144.6,59
		c0.3,0,1-0.6,2.1-1.8c6.6-6.5,11.7-14.1,15.3-22.5c0.7-1.8,1-3.3,1-4.6c0-3-2.1-4.6-6.3-4.6c-0.6,0-1.7,0.1-3.3,0.4
		c-1.6,0.3-3,0.8-4.3,1.6c-1.3,0.8-2.1,2.4-2.3,4.8c-0.5,5.1-1.2,10.2-2.1,15.3c-0.9,5.1-1.3,8.2-1.3,9.5c0,1.3,0.3,1.9,0.8,1.9
		H144.6z"/>
	<path class="st0" d="M166.2,67.1c-1.1,0-2.1-0.4-3-1.1c-0.4-0.4-0.7-1-0.7-1.8c0.9-8,1.8-14.7,2.6-19.9c0.2-1.1,0.8-1.7,1.8-1.7
		c2.4,0,3.6,1.1,3.6,3.3c0,0.4-0.1,0.9-0.3,1.6c-0.2,0.8-0.4,1.6-0.4,2.2c0,0.6,0.1,0.9,0.2,0.9c0.1,0,0.3-0.2,0.4-0.5
		c0.9-1.9,2.5-3.3,4.8-4.4c0.7-0.4,1.5-0.5,2.2-0.5c0.7,0,1.2,0.4,1.7,1.1c0.2,0.4,0.4,0.7,0.4,0.9c0,0.5-0.5,0.9-1.4,1.4
		c-0.2,0.1-0.4,0.2-0.6,0.4c-4.7,3.6-7.8,8.7-9.2,15.4C168.1,66.2,167.3,67.1,166.2,67.1z"/>
	<path class="st0" d="M184.4,67.5c-6,0-9-2.8-9-8.3c0-0.5,0.1-1.7,0.3-3.5c0.2-1.8,1.1-4.2,2.5-7.1c2.6-5.2,5.5-7.8,8.5-7.8
		c2.4,0,4.3,1.2,5.6,3.7c0.4,0.7,0.6,1.5,0.6,2.4c0,1-0.3,2.1-0.9,3.2c-3.4,5-6.6,8.2-9.6,9.6c-1.1,0.5-1.6,1-1.6,1.6
		c0,0.2,0,0.5,0.1,0.7c0.4,1.3,1.1,1.9,2.1,1.9c1.6,0,3.7-1,6.3-2.9c1.7-1.3,3-2.2,3.7-2.9c0.9-0.9,1.7-1.4,2.2-1.4
		c0.3,0,0.6,0.1,0.8,0.3c0.4,0.4,0.7,0.9,0.7,1.5c0,0.6-0.4,1.6-1.2,2.8c-0.8,1.2-2.1,2.5-4,3.9c-1.8,1.4-3.5,2.1-4.9,2.3
		C185.9,67.4,185.1,67.5,184.4,67.5z M182.2,55.1c1-0.7,2-2,3-3.7c1.4-2.6,2.1-4.2,2.1-4.8c0-0.3-0.2-0.5-0.6-0.5
		c-0.3,0-0.5,0.1-0.7,0.3c-3,5-4.4,7.8-4.4,8.2C181.6,54.8,181.8,55,182.2,55.1z"/>
	<path class="st0" d="M200.1,67c-1.5,0-2.2-0.5-2.2-1.5c0-0.5,0.7-1.5,2.2-2.9c2-1.9,3-3.4,3-4.4c0-0.2-0.1-0.5-0.3-0.9
		c-0.2-0.4-1.2-0.8-3.1-1.1c-3.2-0.5-4.7-2.2-4.7-5.3c0-1.5,0.5-3.7,1.4-6.7c1.6-5.2,3.6-7.9,6-7.9c0.4,0,0.7,0.1,1.1,0.2
		c1.6,0.5,2.4,1.1,2.4,1.8c0,0.6-0.3,1.3-0.9,2c-3,3.7-4.4,7.4-4.4,11.2c0,1.3,1,2.1,3,2.4c3.7,0.4,5.6,1.5,5.7,3.4v1.7
		c0,1-0.9,2.5-2.8,4.4C204.1,65.4,202.1,66.7,200.1,67z"/>
	<path class="st0" d="M214.4,67c-1.5,0-2.2-0.5-2.2-1.5c0-0.5,0.7-1.5,2.2-2.9c2-1.9,3-3.4,3-4.4c0-0.2-0.1-0.5-0.3-0.9
		c-0.2-0.4-1.2-0.8-3.1-1.1c-3.2-0.5-4.7-2.2-4.7-5.3c0-1.5,0.5-3.7,1.4-6.7c1.6-5.2,3.6-7.9,6-7.9c0.4,0,0.7,0.1,1.1,0.2
		c1.6,0.5,2.4,1.1,2.4,1.8c0,0.6-0.3,1.3-0.9,2c-3,3.7-4.4,7.4-4.4,11.2c0,1.3,1,2.1,3,2.4c3.7,0.4,5.6,1.5,5.7,3.4v1.7
		c0,1-0.9,2.5-2.8,4.4C218.4,65.4,216.4,66.7,214.4,67z"/>
	<path class="st0" d="M231.7,67.5c-6,0-9-2.8-9-8.3c0-0.5,0.1-1.7,0.3-3.5c0.2-1.8,1.1-4.2,2.5-7.1c2.6-5.2,5.5-7.8,8.5-7.8
		c2.4,0,4.3,1.2,5.6,3.7c0.4,0.7,0.6,1.5,0.6,2.4c0,1-0.3,2.1-0.9,3.2c-3.4,5-6.6,8.2-9.6,9.6c-1.1,0.5-1.6,1-1.6,1.6
		c0,0.2,0,0.5,0.1,0.7c0.4,1.3,1.1,1.9,2.1,1.9c1.6,0,3.7-1,6.3-2.9c1.7-1.3,3-2.2,3.7-2.9c0.9-0.9,1.7-1.4,2.2-1.4
		c0.3,0,0.6,0.1,0.8,0.3c0.4,0.4,0.7,0.9,0.7,1.5c0,0.6-0.4,1.6-1.2,2.8c-0.8,1.2-2.1,2.5-4,3.9c-1.8,1.4-3.5,2.1-4.9,2.3
		C233.2,67.4,232.4,67.5,231.7,67.5z M229.5,55.1c1-0.7,2-2,3-3.7c1.4-2.6,2.1-4.2,2.1-4.8c0-0.3-0.2-0.5-0.6-0.5
		c-0.3,0-0.5,0.1-0.7,0.3c-3,5-4.4,7.8-4.4,8.2C228.9,54.8,229.1,55,229.5,55.1z"/>
	<path class="st0" d="M263.7,82.3h-0.1c-1.5,0-2.9-1.8-4.2-5.4c-1.3-3.4-1.9-8-1.9-13.8c0-6.9,0.1-11.1,0.3-12.6
		c0-0.2,0-0.4-0.1-0.4c-0.1,0-0.4,0.6-0.8,1.9c-2.4,7.5-3.9,12.1-4.6,13.8c-1.2,3.5-2.8,5.2-4.6,5.2c-2.6,0-4.3-1.4-5-4.3
		c-0.4-1.6-0.6-3.4-0.6-5.3c0-7.5,2.3-14.7,6.9-21.6c1.3-2,3.1-3,5.4-3c2.3,0,3.7-0.8,4.4-2.2c0.7-1.5,1.4-3.5,2.2-6.1l2.7-8.9
		c0.5-1.7,1.2-2.6,2.1-2.7c0.5,0,0.9,0,1.3,0.1c1.6,0.4,2.4,1.2,2.5,2.3c0,0.8-0.3,2.4-1,4.7c-1.6,5.4-2.9,9.9-3.8,13.6
		c-1.6,6.4-2.4,14-2.4,22.8c0,0.4,0,3.1,0,7.9c0,4.8,1,8.7,3,11.7c0.5,0.3,0.7,0.7,0.7,1.2C265.9,82,265.2,82.3,263.7,82.3z
		 M247.6,65.2c0.4,0,1-1.3,1.8-4c0.9-2.7,2.2-6.4,4-11.1c1.8-4.8,2.7-7.7,2.7-8.7c0-0.5-0.1-0.7-0.4-0.7c-0.3,0-0.7,0.3-1.4,1
		c-4.9,5.4-7.3,12.6-7.3,21.5v1.4C247,65,247.2,65.2,247.6,65.2z"/>
	<path class="st0" d="M272.5,83.7c-1.9,0-3.7-1-5.4-3c-0.4-0.5-0.7-0.9-0.7-1.3c0-0.2,0.1-0.5,0.4-0.7s0.5-0.4,0.8-0.4
		c0.2,0,0.6,0.1,1.1,0.4c1.1,0.4,2,0.7,3,0.7c4.1,0,7.5-4.2,10.2-12.7c2.2-7,4.1-16.1,5.6-27.4c0.5-3.7,0.7-5.7,0.7-6.1
		c0-1.1-0.6-1.7-1.7-1.7c-1.6,0-4.2,0.8-7.9,2.3c-1.7,0.8-2.9,1.1-3.6,1.1c-0.3,0-0.8-0.6-1.6-1.9c-0.2-0.3-0.2-0.6-0.2-0.8
		c0-0.9,0.9-1.7,2.8-2.4c4.3-1.6,10.7-3,19.2-4.1c2.7-0.4,4.9-0.6,6.6-0.6c0.7,0,1.3,0,1.9,0.1c1.6,0.5,2.4,1.3,2.4,2.4
		c0,1-0.8,1.5-2.4,1.5c-0.4,0-0.9,0-1.3-0.1c-0.4-0.1-0.8-0.1-1.1-0.1c-2.2,0-3.9,0.1-5.1,0.4c-0.9,0.2-1.6,0.8-1.9,1.7
		c-0.2,0.7-0.5,2.4-0.8,5.1c-3.2,29.3-9.6,45.1-19.4,47.4C273.4,83.7,272.9,83.7,272.5,83.7z"/>
	<path class="st0" d="M314.9,68.7h-0.8c-1.1,0-2-0.2-2.6-0.7c-1-0.7-1.6-2.3-1.7-4.7c0-0.7-0.1-1.1-0.3-1.4c-1.5,1.7-2.3,2.7-2.6,3
		c-1.1,1.3-2.5,2-4,2.1l-1.3,0.1c-0.9,0-1.9-0.4-3-1.3c-1.2-0.9-1.7-2.1-1.7-3.7c0-1.3,0.2-3.5,0.7-6.7c0.4-3.2,1.2-6.1,2.3-8.8
		c0.9-2.3,2.1-3.5,3.5-3.5c1.7,0.3,2.5,1,2.5,2.2c0,0.4,0,0.8-0.1,1.1c-0.4,1.2-0.9,3.4-1.7,6.6c-1,4-1.5,6.6-1.5,7.9
		c0,0.5,0.1,0.7,0.2,0.7c0.8,0,2.7-2.5,5.7-7.5c2.6-4.2,4.4-7.4,5.4-9.5c0.6-1.2,1.4-1.8,2.5-1.8c0.5,0,1,0.1,1.6,0.4
		c1.2,0.5,1.9,1.2,1.9,2.3c0,0.5-0.1,1-0.2,1.5c-2.6,7.6-4,13.4-4,17.3c0,1,0.1,1.8,0.3,2.3c0.2,0.5,0.3,1,0.3,1.4
		c0,0.1,0,0.2,0,0.5C316.4,68.4,315.9,68.5,314.9,68.7z"/>
	<path class="st0" d="M323.6,68.7h-0.2c-2,0-3.1-1.4-3.3-4.1c-0.1-1.3-0.1-2.6-0.1-3.9c0-4.8,0.5-9.2,1.4-13.2
		c0.3-1.1,1-1.7,2.2-1.7c2.1,0,3.2,0.8,3.2,2.5c0,0.5,0,0.9-0.1,1.3c-1,5-1.6,10.1-1.8,15.3c0,0.4,0,0.8,0.1,1.2
		c0.1,0.4,0.1,0.7,0.1,1.1c0,0.3,0,0.6-0.1,0.9C325.1,68.4,324.6,68.6,323.6,68.7z M325.5,44.9l-0.8-0.1c-1.1-0.2-1.7-1-1.8-2.2
		v-1.2c0-1.4,0.6-3.7,1.9-6.9l0.3-0.8c0.3-0.7,0.9-1.1,1.8-1.2c0.4,0,0.8,0.1,1.2,0.2c1.3,0.6,2,1.3,2.1,2.1c0,0.9-1,3.8-3,8.8
		C326.8,44.5,326.2,44.9,325.5,44.9z"/>
	<path class="st0" d="M334.9,67.6c-2.6,0-4.7-1.2-6.3-3.7c-0.7-1-1.1-2.3-1.1-4c0-3.1,1-7,3.1-11.6c1.3-2.9,2.5-5,3.7-6.5
		c0.9-1.1,2-1.7,3.5-1.7c2.8,0,4.3,0.9,4.3,2.7c0,0.4-0.1,0.6-0.3,0.8c-0.2,0.2-0.8,0.4-1.8,0.7c-1.3,0.4-2.4,1.5-3.3,3.3
		c-2.1,4.3-3.2,8.9-3.2,13.6c0,1.3,0.4,2.1,1.3,2.7c0.3,0.2,0.5,0.2,0.8,0.2c0.9,0,2.7-1.5,5.5-4.6c0.4-0.4,0.8-0.6,1.4-0.6h0.8
		c0.4,0,0.7,0.2,0.7,0.7c-0.2,1.9-0.9,3.5-2,4.9C340.3,66.6,338,67.6,334.9,67.6z"/>
	<path class="st0" d="M352.8,67.5c-6,0-9-2.8-9-8.3c0-0.5,0.1-1.7,0.3-3.5c0.2-1.8,1.1-4.2,2.5-7.1c2.6-5.2,5.5-7.8,8.5-7.8
		c2.4,0,4.3,1.2,5.6,3.7c0.4,0.7,0.6,1.5,0.6,2.4c0,1-0.3,2.1-0.9,3.2c-3.4,5-6.6,8.2-9.6,9.6c-1.1,0.5-1.6,1-1.6,1.6
		c0,0.2,0,0.5,0.1,0.7c0.4,1.3,1.1,1.9,2.1,1.9c1.6,0,3.7-1,6.3-2.9c1.7-1.3,3-2.2,3.7-2.9c0.9-0.9,1.7-1.4,2.2-1.4
		c0.3,0,0.6,0.1,0.8,0.3c0.4,0.4,0.7,0.9,0.7,1.5c0,0.6-0.4,1.6-1.2,2.8c-0.8,1.2-2.1,2.5-4,3.9c-1.8,1.4-3.5,2.1-4.9,2.3
		C354.3,67.4,353.5,67.5,352.8,67.5z M350.6,55.1c1-0.7,2-2,3-3.7c1.4-2.6,2.1-4.2,2.1-4.8c0-0.3-0.2-0.5-0.6-0.5
		c-0.3,0-0.5,0.1-0.7,0.3c-3,5-4.4,7.8-4.4,8.2C350,54.8,350.2,55,350.6,55.1z"/>
</g>
</svg>
